<svg xmlns="http://www.w3.org/2000/svg" width="142.321" height="36" viewBox="0 0 142.321 36"><path fill="#E6501E" d="M18.708 33.268c.414-.754 1.153-1.522 1.183-3.68.03-2.158-1.625-3.636-1.743-3.695-.118-.06-1.345-.99-3.592-.916-2.247.074-3.474.28-4.183.37-.71.09-2.188.28-2.986.28s-1.936-.25-2.44-.502c-.502-.25-1.7-1.12-2.2-2.082S2.02 21 2.02 21l6.356-2.854s.754-.384 1.064-.77c.31-.383.473-.753.473-.753s.03-1.153.325-1.907c.296-.754.798-1.094.798-1.094l3.09-2.69s-1.474-1.59-1.745-2.927c-.602-2.975-.326-5.655-.326-5.655s1.294 2.865 1.596 3.387c.466.806 1.186 1.574 1.186 1.574s.017-.743.517-1.965c.19-.463 1.293-2.266 1.293-2.266S17.08 4.53 17.7 5.285c.455.552.76.688 1.554 1.052.932.427 1.417 1.21 1.92 2.077.097.167.28.517.28.517s2.502.315 5.178 1.38c2.676 1.064 5.262 2.986 5.262 2.986l-2.87.562s2.72.62 4.732 2.29c1.686 1.4 2.332 2.155 2.347 2.172l.003-.27C36.106 8.083 28.023 0 18.053 0S0 8.083 0 18.053C0 27.363 7.046 35.025 16.096 36c.02-.02 2.2-1.982 2.612-2.732z"/><g fill="#555"><path d="M65.196 16.42h3.45v2.774h-3.45zM137.19 16.764v.446h-1.595v4.242h-.54V17.21h-1.593v-.446h3.727zM141.782 18.147c0-.078.024-.312.07-.703.016-.125.024-.21.024-.258l-.023-.023a3.39 3.39 0 0 1-.164.61l-1.5 3.68h-.306l-1.476-3.703c-.062-.25-.11-.445-.14-.586l-.024.023c.03.407.047.735.047.985v3.28h-.49v-4.687h.702l1.36 3.398c.06.188.124.407.187.656h.022c.047-.22.11-.43.188-.634l1.36-3.422h.703v4.688h-.54v-3.305zM57.345 27.437L54.44 16.42h-3.496l-2.917 11.206-3.04-11.205h-3.36l4.092 14.61h4.403l2.474-9.54h.044l2.597 9.54h4.316l3.727-14.61h-3.228zM65.196 20.237h3.45V31.03h-3.45zM70.772 16.42h3.45v14.61h-3.45zM84.994 20.65a1.998 1.998 0 0 0-1.21-.412h-6.07a2.015 2.015 0 0 0-2.016 2.015v6.763c0 1.113.902 2.015 2.015 2.015h6.072c.456 0 .872-.156 1.21-.41v.41h3.47V16.42h-3.47v4.23zm-.403 9.24h-5.108a.402.402 0 0 1-.403-.404v-7.66c0-.223.18-.403.402-.403h5.11c.222 0 .402.18.402.403v7.66c0 .222-.18.403-.403.403zM98.805 20.65a1.998 1.998 0 0 0-1.21-.412h-6.07a2.015 2.015 0 0 0-2.016 2.015v6.763c0 1.113.9 2.015 2.014 2.015h6.072c.456 0 .872-.156 1.21-.41v.41h3.47V16.42h-3.47v4.23zm-.403 9.24h-5.11a.402.402 0 0 1-.402-.404v-7.66c0-.223.18-.403.403-.403h5.11c.222 0 .402.18.402.403v7.66c0 .222-.18.403-.403.403zM126.538 19.834v.815a1.996 1.996 0 0 0-1.21-.413h-6.07a2.015 2.015 0 0 0-2.016 2.015v6.763c0 1.113.902 2.015 2.015 2.015h6.072c.455 0 .87-.157 1.208-.412v2.895c0 .223-.18.403-.403.403h-8.894l.492 1.186h10.263a2.015 2.015 0 0 0 2.015-2.015V19.833h-3.472zm-.403 10.055h-5.11a.402.402 0 0 1-.402-.404v-7.66c0-.223.18-.403.403-.403h5.11c.222 0 .402.18.402.403v7.66c0 .222-.18.403-.403.403zM113.916 20.237h-8.647a2.015 2.015 0 0 0-2.016 2.015v6.763c0 1.113.902 2.015 2.015 2.015h8.646a2.015 2.015 0 0 0 2.015-2.015v-6.763a2.015 2.015 0 0 0-2.014-2.015zm-1.366 9.227c0 .223-.18.403-.403.403h-5.11a.402.402 0 0 1-.402-.403v-7.66c0-.223.18-.403.403-.403h5.11c.222 0 .402.18.402.404v7.66z"/></g></svg>