<?xml version="1.0" encoding="utf-8"?>
<!-- Generator: Adobe Illustrator 17.0.0, SVG Export Plug-In . SVG Version: 6.00 Build 0)  -->
<!DOCTYPE svg PUBLIC "-//W3C//DTD SVG 1.1//EN" "http://www.w3.org/Graphics/SVG/1.1/DTD/svg11.dtd">
<svg version="1.1" id="图层_1" xmlns="http://www.w3.org/2000/svg" xmlns:xlink="http://www.w3.org/1999/xlink" x="0px" y="0px"
	 width="142.321px" height="36px" viewBox="0 0 142.321 36" enable-background="new 0 0 142.321 36" xml:space="preserve">
<metadata><?xpacket begin="﻿" id="W5M0MpCehiHzreSzNTczkc9d"?>
<x:xmpmeta xmlns:x="adobe:ns:meta/" x:xmptk="Adobe XMP Core 5.5-c014 79.151739, 2013/04/03-12:12:15        ">
   <rdf:RDF xmlns:rdf="http://www.w3.org/1999/02/22-rdf-syntax-ns#">
      <rdf:Description rdf:about=""
            xmlns:xmpMM="http://ns.adobe.com/xap/1.0/mm/"
            xmlns:stRef="http://ns.adobe.com/xap/1.0/sType/ResourceRef#"
            xmlns:stEvt="http://ns.adobe.com/xap/1.0/sType/ResourceEvent#"
            xmlns:xmp="http://ns.adobe.com/xap/1.0/"
            xmlns:xmpGImg="http://ns.adobe.com/xap/1.0/g/img/"
            xmlns:pdf="http://ns.adobe.com/pdf/1.3/"
            xmlns:dc="http://purl.org/dc/elements/1.1/"
            xmlns:xmpTPg="http://ns.adobe.com/xap/1.0/t/pg/"
            xmlns:stDim="http://ns.adobe.com/xap/1.0/sType/Dimensions#"
            xmlns:xmpG="http://ns.adobe.com/xap/1.0/g/">
         <xmpMM:RenditionClass>proof:pdf</xmpMM:RenditionClass>
         <xmpMM:DocumentID>xmp.did:5ebaeb6b-1cce-1c4d-97f0-4b0fcb746a81</xmpMM:DocumentID>
         <xmpMM:InstanceID>xmp.iid:5ebaeb6b-1cce-1c4d-97f0-4b0fcb746a81</xmpMM:InstanceID>
         <xmpMM:OriginalDocumentID>uuid:07eda00b-4635-4e7e-b0e0-a0f2c9ff9d11</xmpMM:OriginalDocumentID>
         <xmpMM:DerivedFrom rdf:parseType="Resource">
            <stRef:instanceID>uuid:6b4bd6e5-adda-4172-9df8-fe2b5cfb8412</stRef:instanceID>
            <stRef:documentID>uuid:07eda00b-4635-4e7e-b0e0-a0f2c9ff9d11</stRef:documentID>
            <stRef:originalDocumentID>uuid:07eda00b-4635-4e7e-b0e0-a0f2c9ff9d11</stRef:originalDocumentID>
            <stRef:renditionClass>proof:pdf</stRef:renditionClass>
         </xmpMM:DerivedFrom>
         <xmpMM:History>
            <rdf:Seq>
               <rdf:li rdf:parseType="Resource">
                  <stEvt:action>saved</stEvt:action>
                  <stEvt:instanceID>xmp.iid:5ebaeb6b-1cce-1c4d-97f0-4b0fcb746a81</stEvt:instanceID>
                  <stEvt:when>2015-11-28T18:13:08+08:00</stEvt:when>
                  <stEvt:softwareAgent>Adobe Illustrator CC (Windows)</stEvt:softwareAgent>
                  <stEvt:changed>/</stEvt:changed>
               </rdf:li>
            </rdf:Seq>
         </xmpMM:History>
         <xmp:CreateDate>2015-11-28T18:13:08+08:00</xmp:CreateDate>
         <xmp:CreatorTool>Adobe Illustrator CC (Windows)</xmp:CreatorTool>
         <xmp:ModifyDate>2015-11-28T18:13:08+08:00</xmp:ModifyDate>
         <xmp:MetadataDate>2015-11-28T18:13:08+08:00</xmp:MetadataDate>
         <xmp:Thumbnails>
            <rdf:Alt>
               <rdf:li rdf:parseType="Resource">
                  <xmpGImg:width>256</xmpGImg:width>
                  <xmpGImg:height>68</xmpGImg:height>
                  <xmpGImg:format>JPEG</xmpGImg:format>
                  <xmpGImg:image>/9j/4AAQSkZJRgABAgEASABIAAD/7QAsUGhvdG9zaG9wIDMuMAA4QklNA+0AAAAAABAASAAAAAEA&#xA;AQBIAAAAAQAB/+4ADkFkb2JlAGTAAAAAAf/bAIQABgQEBAUEBgUFBgkGBQYJCwgGBggLDAoKCwoK&#xA;DBAMDAwMDAwQDA4PEA8ODBMTFBQTExwbGxscHx8fHx8fHx8fHwEHBwcNDA0YEBAYGhURFRofHx8f&#xA;Hx8fHx8fHx8fHx8fHx8fHx8fHx8fHx8fHx8fHx8fHx8fHx8fHx8fHx8fHx8f/8AAEQgARAEAAwER&#xA;AAIRAQMRAf/EAaIAAAAHAQEBAQEAAAAAAAAAAAQFAwIGAQAHCAkKCwEAAgIDAQEBAQEAAAAAAAAA&#xA;AQACAwQFBgcICQoLEAACAQMDAgQCBgcDBAIGAnMBAgMRBAAFIRIxQVEGE2EicYEUMpGhBxWxQiPB&#xA;UtHhMxZi8CRygvElQzRTkqKyY3PCNUQnk6OzNhdUZHTD0uIIJoMJChgZhJRFRqS0VtNVKBry4/PE&#xA;1OT0ZXWFlaW1xdXl9WZ2hpamtsbW5vY3R1dnd4eXp7fH1+f3OEhYaHiImKi4yNjo+Ck5SVlpeYmZ&#xA;qbnJ2en5KjpKWmp6ipqqusra6voRAAICAQIDBQUEBQYECAMDbQEAAhEDBCESMUEFURNhIgZxgZEy&#xA;obHwFMHR4SNCFVJicvEzJDRDghaSUyWiY7LCB3PSNeJEgxdUkwgJChgZJjZFGidkdFU38qOzwygp&#xA;0+PzhJSktMTU5PRldYWVpbXF1eX1RlZmdoaWprbG1ub2R1dnd4eXp7fH1+f3OEhYaHiImKi4yNjo&#xA;+DlJWWl5iZmpucnZ6fkqOkpaanqKmqq6ytrq+v/aAAwDAQACEQMRAD8A9U4qkXmrzlovlq1Et/Jy&#xA;ncEwWke8slPbsv8AlHMbU6uGEXLn3OdoezsuplUBt1PQPJdV/M/zlr800Wmv+jreON5vRtz+89OJ&#xA;SzEykcqhQT8NM0WTtHNlJEfSPL9b12DsXTYADP1kkDflZ8v7WGsdW1MzTO8141vGZp3dmkKoCFLE&#xA;sTtVhmv9U7O5p3A8PFQFRs0OiHguLiCQSQSvFIOjoxU/eMiJEcmyUBIURbKtB/NLzdpLqGujf2w+&#xA;1BdVk29pPtj76e2ZuHtHLDrxDzdVquxNPlH08J747fZyeweTvzB0XzNH6cJ+raiorJZSEcqDqY22&#xA;5r+PiM32l10M3LaXc8h2h2Tl0xs+qHf+vuZPma6t2KuxV2KuxV2KuxV2KuxV2KuxV2KuxV2KuxV2&#xA;KuxV2KuxV2KuxV2KuxV2KuxVIvOXmq18taLJfygPO37u0gJp6kp6f7EdWzG1epGGHEefRzuztDLU&#xA;5RAcup7g+c9W1a/1a/lv7+UzXMxqzHoB2VR2A7DOSy5ZTlxS5vo+DBDFAQgKiE9/LG4hh87acJ+J&#xA;hnMkDhtwfViZFG/ixAzK7OkBmjfXb7HA7agTpZVzFH5EPYPKX5f6foKavC6pcQ6jIUQMKn6qV2ia&#xA;vuzVp12zfaXQxxcQ58X3dzx+v7VnnMDyMB/su/7nnH5i/liugW51XS3eXTeXGeF93h5H4TyH2krt&#xA;vuNuuanX9neEOKP0/c9H2R21458PJtPp5/tee5qnoVW1uri0uI7m2kaG4hYPFKhoysOhBwxkYmxz&#xA;YzhGcTGQsF9Cfl352TzNpJ9eiapaUW7QbBq/ZkUeDU38D9GdVodX40d/qHN897X7NOmybfRLl+pl&#xA;mZzqXYq7FXYq7FXYq7FXYq7FXYq7FXYq7FXYq7FXYq7FXYq7FXYq7FXYq7FXYq8B/NvzA+qeapbR&#xA;Gra6ZW3jXt6nWVvny+H6M5ftPPx5a6R2/W9/2DpBiwCX8U9/h0/HmwjNc7tMNC0vVtT1SC10qNpL&#xA;0sGjKHjw4mvMt+yF8csw45TkBHm0arPjxYzLIfS+ndPS9jsYEvpEmvFRRcSxgqjOBuQDnZQBERxc&#xA;3zDKYmZMBUb2V3RHUo6hlbZlIqCPkcmQwBI5Mf1f8v8Ayhqqt9Z02JJD/u6Aei9fEmPjy/2Vcxcu&#xA;ixT5xHw2dhp+1dRi+mZruO/3vNPNf5M6nYK91ocjahbru1swAuFH+TSiyfRQ+xzT6nsmUd4eofa9&#xA;LofaKGT05RwHv6fsYx5F12XQPNVpcuTHCz/V71W2/dueLch/kH4vozC0eY4soPwLs+09KNRp5RHP&#xA;mPf+3k+k86982dirsVdirsVdirsVdirsVdirsVdirsVdirsVdirsVdirsVdirsVdirsVdir5QvLl&#xA;7q8nun+3PI8rfN2LH9ecPOXESe99XxwEYiI6ClHAzfQH5SaFHp3lKC5eD0r2/LTTMwo5TkREPHjw&#xA;AYfPOo7MwiGIGt5fgPAdvao5NQY3cYbD9P2s1zYukdirsVQOr6Jpur2ptdQiMsJ7BmQivgUKnK8u&#xA;GOQVJv0+pnhlxQNF4955/KS50iGTUdGZ7uwT4prdhWaJfEU+2o+VR79c0Gs7MMBxQ3j9r2PZnb0c&#xA;pEMvpn39D+p7B5funu9A027f7dxawSt83jVj+vN9glxQie8B4/VwEMs4jpIj7Ui82fmb5X8q6hHY&#xA;au06TzRCeMxxF1KFmXqD1qp2y1x2QaNq9lrGl22p2Ll7S7jEkLEUND2I7EdDiqQ+bfzM8q+Vb6Kx&#xA;1aWVbmaL1lSKMyUQsVBNOlSpxVNfLPmbSfMukpqmluz2rsyfGvFgyGhBXtiqW+bvzG8seU7i3t9X&#xA;lkWW5RpI1ijMnwqaVNOm+KuvfzF8t2flW18z3DTJpd44SA+mfUJYsASleh4HFV3l/wDMPy3r+k6h&#xA;qunvK1ppqs10XjKsAqGQ8R3+EYqgfLX5teT/ADHq8Wk6bJO13MHZBJEUWiKWO5PgMVZnirsVYN/y&#xA;ubyR+mv0N6tx9d+s/U6eiePq+p6f2q9OXfFWc4q7FWDa1+c3knRtVudLvZbgXdo/pzBISy8hvsa7&#xA;4qznFXYq7FXYq7FXYq7FUgh88aBNdtaIL76wgQyxtp1+nprKSEaQtAAitxb4moNj4Yqrt5v8uL5b&#xA;/wASm9X9CcBJ9c4uRxL+n9jjzrz+GnGtcVeE+VPIWp+YtRurOGaK3FiwW6eQksKkr8KDdt1PhnJa&#xA;bRSyyIBqub6Pru1IaeEZEE8XJ675c/Kryto/CWWL9I3i7+vcgFQf8mP7I+mp983uDs3Fj3PqPm8j&#xA;rO3M+bYHgj3D9bMc2DpnYq7FXYq7FXYq1HGkaLHGoSNAFRFFAANgAB2wAUkkk2Xj3/OSGietouma&#xA;yi1e0na2lI/knXkpPsGjp9OFCZf849639d8lyac7Vl0u4dFXwim/eqf+DL4q8g/N7WDq/wCYWrSI&#xA;S0Vq4tIh1oLdeL/RzDHFXon/ADjZrPKz1jRXP91Il5CPESD05Pu4J9+KsL/O3UZdX/Mmezg/efVF&#xA;hsYFHdiObD5+pKRir1P807LQNF/LXTtP1K2murCyktrdI7aVYH5RxMobmySeBrtiqS/lnP5em/L/&#xA;AM2nRbO4s4hBMJVuZlnLN9WahUrHFQUxVgX5Ff8AkydP/wCMVx/yZbFXpU//ADkFYS6y2maNolzq&#xA;hMhitnjkCtMRtVIwrmh6j28MVTNfzP8ANpYcvIWqBa/EQSSB7D0xirwezuDc/mRBcGN4TNrCyejK&#xA;OLpzugeLjswrQ4q9t8yfnxpeleYZ9EsdKn1Ke3lNtI6uI+U6twZEXi7NRvh+fTFUV/ytDzf/ANSD&#xA;qf8AwR/6pYq8C8+X8moecNVvJbWWykmnLPaTjjLGaAFWHjir3rzt+eGjeWdbl0eOwl1C5twPrLq4&#xA;iRGYBgoJDcjQiu2KolPzG86OiuvkO/owBFZkBofYpXFUmuvz/i03Vv0drfl2606SMqLgGVXkRWAI&#xA;bgVTlsa9cVTvz3+cWh+VZbS3S3fUrm8hW6VY2EaLC9eDFiG3amwpiqCtfza8z3dtFdW3kXUZredB&#xA;JDKjEqyMKqyn0twR0xVJ/M/57a9o8tvFJ5YlsJZULvFfllJo1AYyoXkPHbFXonkLzLP5m8p2Otzw&#xA;rby3fq8oUJKr6czxChO+4SuKqcdleDzR5iuDC/oXOn2McElDxd4zdc1U9yvNa/PFWDXHlHzAfLdx&#xA;oS2ch0oaXJqkcfE8jfvZGH6mF61+sFp/9amKoDzHe6h5E/MW41G1j52eoVnaE7LJHKayLUdGWQGn&#xA;htnO55y02oMhyk9to8cNdoxCR9UNr7iOX2M3tPzg8kT2/qTXMtrJSpgkhkZq+AMYdfxzYx7Uwkbm&#xA;vg6TJ7P6qJoASHfY/TSHufzq8mwmka3dx7xxKP8Ak46ZGXa2Ed5+DOHs5qTz4R8f1AqNr+d/lWWY&#xA;JNbXduhNPVZEZR7kK5b7gcjHtfETuCGyfs1nAsGJ+f6meWF/Z6hZxXlnKs9rOvKKVOhH+fUZs4TE&#xA;hYNguhy4pY5GMhUgr5JrdirsVdirHPzF0T9NeSdY09V5SvbtJAvcyw/vUA+bIBirwj8j/NkWgaxq&#xA;wuG/0abT5p+FacpLNTMo/wCA54qt/JnQF8y+dLya/HqQpaXMlwx7vcgw/eRKx+jFVD8qdTbyt+ZS&#xA;2183oxk3Gn3pOwBWv/M2NcVWfl5BL5p/Ni2vJlqJLyXU7iu4HBjMAfbnxXFXrH/OQ3/KBR/8x0P/&#xA;ABCTFWK/kv8A+S585f8AGKX/AKhXxVin5Ff+TJ0//jFcf8mWxVA/k/8A+TJ0T/jLJ/yZfFX1jir5&#xA;H/8AKp/9vz/sbxVXv/8AycNx/wCBC/8A1GnFX1jir5H/ADU/8mHrv/MSf+IjFXfmp/5MPXf+Yk/8&#xA;RGKvrjFXy5+ev/kydQ/4xW//ACZXFVD82f8AjqaF/wBsOw/4g2Kvo7yJ/wAoP5e/7Zln/wBQ6Yq8&#xA;c/5yU/47mjf8w0n/ACcxV6P+SX/ksNF/6Of+ouXFWcYq7FWMfmD5Oj8zaKYY6LqNtWSykOw5U+KM&#xA;n+V6ffQ5ha7S+NCv4hydp2T2gdNls/RLn+v4Pna6tbi0uJLa5jaG4hYpLE4oysOoIzlJRMTR5vok&#xA;JxnESibBUsDJ2KvZfyJvbmTTNUtHJNvbyxvDU1o0qtzA8B8AOdB2NMmMh0DxvtPjiJwkOZBv4f2v&#xA;UM3Ly7sVdirsVdir46876O+g+cNW0xKxpBcSCEDY+jL8UY+mNxir2j/nHDRvq/l3UdWdaPfXAhjJ&#xA;7x269R/s5GH0Yq84/O3RjpX5h3kkYKRX6x3sRG27ji5r/wAZEY4qyz/nGzR+V7rGsuu0UcdpC3iZ&#xA;G9ST7vTX78VZV/zkN/ygUf8AzHQ/8QkxViv5L/8AkufOX/GKX/qFfFWKfkV/5MnT/wDjFcf8mWxV&#xA;LfKMx8nfmHYy6/FJarp07rdDgSwBRo+SjYstTWo6jpir3dfzz/Lh2CrfTMzGiqLaYkk9h8OKvn+z&#xA;uUuvzIgukVkSfWFlVJBxcB7oMAw7EV3GKo/zZFc6H+al3ealBJDCurtfL8O7wG59VWStA1V98Ve4&#xA;f8r1/Lf/AJb5f+keb/mnFXz5+YGpW+p+c9Xv7YOLe4nLxeopjbiQKEq1CK++Kpt+cek6hY+f9Ulu&#xA;YWSG8kE9tMQeEiMo+y3Q0OxxV7KPz+/L0gEy3QJ7GA1H3HFXin5i6zb+b/PdxeaFFNcJdiGK3j4H&#xA;1HZY1QgIKnqMVTn86vL+raff6LNcW7C2TSrW1a4UVjE0AZXQsNq9Dir0Tyl+dHkCw8raPYXd5LFd&#xA;Wdlb288foStR4olRqFQQRVdsVedfnZ5v0XzPqemXWkNLJbQ27oZpIniVmL1ovMAmnfFXsX5Jf+Sw&#xA;0X/o5/6i5cVZxirsVdirE/O35d6T5mT16/VNUQUS7UV5AdFkXbkPfqPwzB1ehjm35S73bdm9r5NM&#xA;a+qHd+p4v5g8heaNCdjd2bSWy1pdwAyREDuSN1/2QGc9n0WXHzG3e9ppO1MGf6Zb9x2P49yR2trc&#xA;XdxHbW0bTXEzBIokFWZj0AGY0YmRoc3OnOMImUjQD6L/AC+8qf4b8vpay0N7O3rXjDcByAAgPgoF&#xA;M6zQ6bwcdHmeb512rrvzObiH0jYfjzZLmY6x2KuxV2KuxV2KuxV2KuxV2KuxV2KuxV2KuxV2KuxV&#xA;2KuxV2KuxVjPmjz3D5evYrWXRtU1D1Y/UWewt1njG5BVj6ikMKeGKpN/yuKx/wCpY8w/9IK/9VcV&#xA;eXfm1qOq+c9VsJ9L8vatFFawmIi4tHV2d3rsqeoKfTir2b8rdF1DRfIWk6dqEfo3kSSPLEeq+tM8&#xA;oU+4VxXFWVYq7FXYq7FXYql0f+Hv0mPS+qfpShpx9L6xx/a6fHTxyoeHxbVxfa5J8bg34uD41+pM&#xA;ctcZ2KuxV2KuxV2KuxV2KuxV2KuxV2KuxV2KuxV2KuxV2KuxV2KuxV2KuxV2KuxV2KuxV2Kv/9k=</xmpGImg:image>
               </rdf:li>
            </rdf:Alt>
         </xmp:Thumbnails>
         <pdf:Producer>Adobe PDF library 10.01</pdf:Producer>
         <dc:format>image/svg+xml</dc:format>
         <xmpTPg:MaxPageSize rdf:parseType="Resource">
            <stDim:w>142.321279</stDim:w>
            <stDim:h>36.000000</stDim:h>
            <stDim:unit>Pixels</stDim:unit>
         </xmpTPg:MaxPageSize>
         <xmpTPg:NPages>1</xmpTPg:NPages>
         <xmpTPg:HasVisibleTransparency>False</xmpTPg:HasVisibleTransparency>
         <xmpTPg:HasVisibleOverprint>False</xmpTPg:HasVisibleOverprint>
         <xmpTPg:PlateNames>
            <rdf:Seq>
               <rdf:li>Cyan</rdf:li>
               <rdf:li>Magenta</rdf:li>
               <rdf:li>Yellow</rdf:li>
               <rdf:li>Black</rdf:li>
            </rdf:Seq>
         </xmpTPg:PlateNames>
         <xmpTPg:SwatchGroups>
            <rdf:Seq>
               <rdf:li rdf:parseType="Resource">
                  <xmpG:groupName>默认色板组</xmpG:groupName>
                  <xmpG:groupType>0</xmpG:groupType>
               </rdf:li>
            </rdf:Seq>
         </xmpTPg:SwatchGroups>
      </rdf:Description>
   </rdf:RDF>
</x:xmpmeta>
                                                                                                    
                                                                                                    
                                                                                                    
                                                                                                    
                                                                                                    
                                                                                                    
                                                                                                    
                                                                                                    
                                                                                                    
                                                                                                    
                                                                                                    
                                                                                                    
                                                                                                    
                                                                                                    
                                                                                                    
                                                                                                    
                                                                                                    
                                                                                                    
                                                                                                    
                                                                                                    
                           
<?xpacket end="w"?>
	</metadata>
<g>
	<path fill="#E6501E" d="M18.708,33.268c0.414-0.754,1.153-1.522,1.183-3.68c0.03-2.158-1.626-3.636-1.744-3.695
		c-0.118-0.059-1.345-0.99-3.592-0.916c-2.247,0.074-3.474,0.281-4.183,0.37c-0.709,0.089-2.188,0.281-2.986,0.281
		c-0.798,0-1.936-0.251-2.439-0.503c-0.503-0.251-1.7-1.12-2.202-2.082S2.02,20.999,2.02,20.999l6.356-2.853
		c0,0,0.754-0.384,1.064-0.769c0.31-0.384,0.473-0.754,0.473-0.754s0.029-1.153,0.325-1.907c0.296-0.754,0.798-1.094,0.798-1.094
		l3.089-2.69c0,0-1.473-1.589-1.744-2.927C11.778,5.03,12.054,2.35,12.054,2.35s1.294,2.865,1.596,3.387
		c0.466,0.806,1.186,1.574,1.186,1.574s0.017-0.744,0.517-1.966c0.189-0.463,1.293-2.266,1.293-2.266s0.434,1.453,1.054,2.207
		c0.455,0.552,0.759,0.688,1.554,1.052c0.932,0.427,1.417,1.21,1.92,2.077c0.097,0.167,0.281,0.517,0.281,0.517
		s2.501,0.315,5.177,1.38c2.676,1.064,5.262,2.986,5.262,2.986l-2.871,0.562c0,0,2.72,0.621,4.733,2.291
		c1.686,1.399,2.332,2.154,2.347,2.171c0.001-0.09,0.003-0.179,0.003-0.269C36.106,8.083,28.023,0,18.053,0S0,8.083,0,18.053
		C0,27.362,7.046,35.025,16.096,36C16.117,35.981,18.297,34.018,18.708,33.268z"/>
	<g>
		<rect x="65.196" y="16.421" fill="#555555" width="3.45" height="2.773"/>
		<g>
			<path fill="#555555" d="M137.189,16.764v0.446h-1.594v4.242h-0.539v-4.242h-1.594v-0.446H137.189z"/>
			<path fill="#555555" d="M141.782,18.147c0-0.078,0.024-0.312,0.071-0.703c0.015-0.125,0.023-0.211,0.023-0.258l-0.023-0.023
				c-0.047,0.25-0.102,0.454-0.164,0.61l-1.5,3.68h-0.305l-1.476-3.703c-0.062-0.25-0.109-0.445-0.141-0.586l-0.023,0.023
				c0.031,0.407,0.047,0.735,0.047,0.985v3.281h-0.492v-4.688h0.703l1.359,3.398c0.062,0.188,0.125,0.407,0.188,0.656h0.023
				c0.047-0.219,0.109-0.43,0.188-0.633l1.36-3.422h0.703v4.688h-0.539V18.147z"/>
		</g>
		<polygon fill="#555555" points="57.345,27.437 54.439,16.421 50.944,16.421 48.027,27.626 44.987,16.421 41.626,16.421 
			45.719,31.031 50.123,31.031 52.597,21.491 52.641,21.491 55.237,31.031 59.553,31.031 63.28,16.421 60.052,16.421 		"/>
		<rect x="65.196" y="20.237" fill="#555555" width="3.45" height="10.794"/>
		<rect x="70.772" y="16.421" fill="#555555" width="3.45" height="14.61"/>
		<path fill="#555555" d="M84.994,20.65c-0.338-0.255-0.753-0.412-1.209-0.412h-6.072c-1.113,0-2.015,0.902-2.015,2.015v6.763
			c0,1.113,0.902,2.015,2.015,2.015h6.072c0.456,0,0.872-0.157,1.209-0.412v0.412h3.472v-14.61h-3.472V20.65z M84.591,29.889h-5.109
			c-0.223,0-0.403-0.18-0.403-0.403v-7.66c0-0.223,0.181-0.403,0.403-0.403h5.109c0.223,0,0.403,0.18,0.403,0.403v7.66
			C84.994,29.708,84.813,29.889,84.591,29.889z"/>
		<path fill="#555555" d="M98.805,20.65c-0.338-0.255-0.753-0.412-1.209-0.412h-6.072c-1.113,0-2.015,0.902-2.015,2.015v6.763
			c0,1.113,0.902,2.015,2.015,2.015h6.072c0.456,0,0.872-0.157,1.209-0.412v0.412h3.472v-14.61h-3.472V20.65z M98.402,29.889h-5.109
			c-0.223,0-0.403-0.18-0.403-0.403v-7.66c0-0.223,0.18-0.403,0.403-0.403h5.109c0.223,0,0.403,0.18,0.403,0.403v7.66
			C98.805,29.708,98.625,29.889,98.402,29.889z"/>
		<path fill="#555555" d="M126.538,19.834v0.815c-0.337-0.255-0.753-0.412-1.209-0.412h-6.072c-1.113,0-2.015,0.902-2.015,2.015
			v6.763c0,1.113,0.902,2.015,2.015,2.015h6.072c0.456,0,0.872-0.157,1.209-0.412v0.412v2.483c0,0.223-0.18,0.403-0.403,0.403
			h-8.894l0.491,1.186h10.263c1.113,0,2.015-0.902,2.015-2.015v-2.057v-1.244v-9.953H126.538z M126.135,29.889h-5.109
			c-0.223,0-0.403-0.18-0.403-0.403v-7.66c0-0.223,0.18-0.403,0.403-0.403h5.109c0.223,0,0.403,0.18,0.403,0.403v7.491v0.169
			C126.538,29.708,126.358,29.889,126.135,29.889z"/>
		<path fill="#555555" d="M113.916,20.237h-8.647c-1.113,0-2.015,0.902-2.015,2.015v6.763c0,1.113,0.902,2.015,2.015,2.015h8.647
			c1.113,0,2.015-0.902,2.015-2.015v-6.763C115.931,21.139,115.029,20.237,113.916,20.237z M112.55,29.464
			c0,0.223-0.18,0.403-0.403,0.403h-5.109c-0.223,0-0.403-0.18-0.403-0.403v-7.66c0-0.223,0.18-0.403,0.403-0.403h5.109
			c0.223,0,0.403,0.18,0.403,0.403V29.464z"/>
	</g>
</g>
</svg>
